PathFileType	4	(X/Y/Z)	T1_P2_Vision_NoMovement_1_0-732.trc
DataRate	CameraRate	NumFrames	NumMarkers	Units	OrigDataRate	OrigDataStartFrame	OrigNumFrames
60	60	6	27	m	60	457	732
Frame#	Time	RHip			RKnee			RAnkle			RBigToe			RSmallToe			RHeel			LHip			LKnee			LAnkle			LBigToe			LSmallToe			LHeel			Neck			Head			Nose			RShoulder			RElbow			RWrist			RThumb			RIndex			RPinky			LShoulder			LElbow			LWrist			LThumb			LIndex			LPinky		
		X1	Y1	Z1	X2	Y2	Z2	X3	Y3	Z3	X4	Y4	Z4	X5	Y5	Z5	X6	Y6	Z6	X7	Y7	Z7	X8	Y8	Z8	X9	Y9	Z9	X10	Y10	Z10	X11	Y11	Z11	X12	Y12	Z12	X13	Y13	Z13	X14	Y14	Z14	X15	Y15	Z15	X16	Y16	Z16	X17	Y17	Z17	X18	Y18	Z18	X19	Y19	Z19	X20	Y20	Z20	X21	Y21	Z21	X22	Y22	Z22	X23	Y23	Z23	X24	Y24	Z24	X25	Y25	Z25	X26	Y26	Z26	X27	Y27	Z27
458	7.633333333333334	444.8887259372781	3659.5672604393285	650.4000334735906	832.6978871553706	3695.19073284725	647.3559551709446	1213.8305312399086	3735.4517149390094	675.6928252083795	1294.3726116738562	3641.810336668802	652.2505021627428	1295.3228272946392	3693.159752772943	607.3074619402882	1285.7314123007359	3817.5207404231505	746.838990928533	459.07720725093617	3602.888612199019	851.4359750648439	838.829256159439	3585.56034324234	849.2100896692292	1240.727689097989	3694.523615737528	869.5043740912087	1310.7493342450246	3551.408262691092	808.5658310247685	1287.840172791841	3537.858716483522	848.1219890895711	1258.682325751852	3706.659890340975	857.2611957890182	-130.27863220538163	3641.0633062333713	777.5781969395025	-396.6204950089429	3603.110718526814	759.1629695274586	-256.24965632007223	3457.873585055713	715.2767782269241	-40.10336182621731	3723.123762867712	630.9133693469973	197.80350006746136	3666.4537409949935	539.8614903376125	347.05597654536143	3530.898445043442	628.813830680924	414.5434106395896	3507.99619346847	733.0874973129646	440.8694871141907	3489.551703512415	728.165136352836	468.9987475425489	3476.8749532276765	700.4150286399483	-38.24839938619522	3547.624762359945	918.6171444797917	218.0118276801292	3487.163165886927	919.7781704048704	332.47142057338294	3391.17646944887	700.1193770326124	373.2600532241624	3416.780995396601	613.9285591528001	419.8996725710668	3416.847659695273	604.5554773016391	456.1012983169701	3456.6970882221467	685.2215420230306
459	7.65	444.3212175439161	3660.8565410852007	650.0528895468182	832.3151565216111	3694.6004748860078	647.1775262454256	1214.4148534050646	3736.2549786725513	675.5900803375449	1298.099817313387	3650.563945615697	657.7409381484196	1292.6172132554213	3691.1521670796064	607.1745816371475	1287.3465646078675	3818.8159629712786	747.1445679897399	457.2538934900119	3601.852709342219	850.6421361135572	838.7137594634191	3587.1008280255896	849.7144418116266	1240.8435478488555	3694.4012087942374	869.444718896619	1309.470065942804	3548.044774538793	807.4652192580573	1288.4225961478535	3537.911915115076	848.8214364462556	1258.9738507638046	3706.7806938594263	857.3050450896876	-130.29447350739906	3641.6834187518457	777.4255233672525	-396.8979909641551	3599.3553086812108	753.9795736397466	-256.25298428109346	3457.95339752302	715.2912823758895	-40.591046163264934	3723.5235316897483	631.229626553039	197.5121451261332	3666.7999310247606	540.017864862189	345.4453319511632	3530.344674882622	628.4879062217618	413.1479485986107	3503.6065483903208	732.1580925314196	439.8871573238882	3488.689374001744	728.1762281569913	468.44815253396945	3476.7561691423352	700.2918045804422	-38.25991033267694	3547.9771791596786	918.8794978562639	216.61445329627063	3486.1985480920744	919.2784725467927	332.46666616854793	3390.877857537839	699.864362460031	372.11361253222606	3412.8537040919628	610.2801987315025	419.1468154074517	3414.21993374051	602.3925605653244	454.84194503632847	3456.604627227819	685.0651265815227
460	7.666666666666667	444.262095690824	3661.844478682194	649.4240169548692	831.3058344688088	3692.420870719083	646.5836159200262	1214.1566403125169	3736.2896282406446	675.796670785706	1300.7251744172518	3656.4602808723093	662.0156403991434	1289.0587886337362	3690.455977001541	607.2836999893127	1288.8869289372485	3819.996704472001	747.4354160545209	455.7687773286915	3600.5859600671565	850.5863418947085	838.8013775065523	3588.0508333959633	850.0467430420839	1241.1639541776233	3693.9176032326086	869.1626260530924	1308.6070609195353	3545.7807096552533	806.6614298674281	1288.653493669495	3538.015948761801	849.0634142051304	1260.7710910545256	3707.912103404289	857.6414998202596	-130.30075590571698	3641.5004842700473	777.5285782907538	-395.3624651458763	3594.785260688711	748.1433965657926	-256.26347391027434	3457.9112269762545	715.2220942457542	-41.819742194486466	3725.0680783387184	632.2687185331084	197.40001188158445	3666.9439380317826	540.0786711010292	344.1893112725787	3529.850990795532	628.2107061292211	411.2226145145521	3497.658203554225	730.8718358459146	438.4522503533081	3486.5281938864077	727.8959591131488	467.31796340602034	3476.4207352970348	700.0140848652443	-38.1672936681658	3547.9681466067495	919.1069518495442	216.03735859195106	3485.8337925986825	919.0569007799842	332.2157218619096	3389.510162439627	698.6340716159043	371.82961912143674	3411.176964044281	608.8245535714786	419.0912133942412	3416.7521363491724	604.5268877369282	452.948294350133	3456.799116564136	685.0122476654834
461	7.683333333333334	444.8472642027204	3662.079378435911	648.6471661373271	830.8730230787106	3689.2267314815103	645.8143587085656	1214.3220260932114	3736.233954148249	675.9948955018938	1300.2700471204319	3654.5713936925767	662.5728836404289	1286.8182422369957	3690.3421727031855	607.2452648400042	1289.6766282778503	3820.5330473824183	747.5678381064236	455.0857482484581	3599.6704186189086	851.0402735196385	839.561867502673	3590.943244069066	850.9761125841253	1241.5998081114737	3693.151750489036	868.6954663182635	1308.375863376375	3545.0920746949173	806.3540290145615	1288.7482668826283	3538.154292364875	848.9952337539531	1263.0210228935887	3709.4282375803855	858.0814535183587	-130.3028744930827	3640.907193677768	777.3157879864483	-393.6455127022232	3591.309851916068	744.1141691091731	-256.2728272025404	3457.842869171065	715.1646291817583	-43.48184647992885	3726.7171370623587	633.1423668344869	197.39688377014642	3666.9545964872473	540.0747092941284	343.6506004601859	3529.590260785895	628.0708898757357	409.45277091841456	3492.7206883107	729.643955527784	437.46881798153754	3485.2182030174417	727.6641837190551	466.1488579021989	3476.07377359191	699.7330003028242	-38.132369936376044	3547.6333389128267	918.9669373108788	216.01126453820504	3485.8453636220274	919.0251783960247	331.7350721091102	3387.1511642746173	696.4697812059279	372.32235172218634	3412.3088465906467	609.9824029171541	419.46581283616865	3422.2572589040437	609.2311170278215	451.320233305451	3457.108906686039	685.0436973506046
462	7.7	445.5926215232571	3661.26118174571	647.7198245127594	831.3857062700786	3687.7344554424744	645.5252043984036	1215.676592023858	3736.8030564813594	675.6051795802098	1297.7473209637722	3647.584558742064	660.343541973903	1286.5226147988417	3689.35466567829	606.5906951678625	1289.804673978192	3820.517593978997	747.531717211934	455.11422720863527	3599.4379263618475	851.4795219928151	840.8854012025146	3595.9448208042695	852.5461956593498	1241.8474935880542	3692.674669631494	868.3826377873164	1308.4257681438478	3545.0706915163246	806.2839616688722	1288.7592510595978	3538.378121155103	848.504727783668	1264.1826696070757	3710.316648575566	858.3315591384788	-130.31277216058524	3638.997544523534	775.7304084402399	-392.9500295808515	3589.8674500774805	742.665374040854	-256.2680378026202	3457.81987153348	715.1657575378892	-44.732210105717506	3726.17930477617	632.2836350084696	197.4236036795431	3666.915685188424	540.0530117458494	343.58898504482	3529.5603798703455	628.0513778103849	408.0556315934529	3489.889089041686	728.3616351639587	437.3331857770632	3485.0565982907156	727.2649755276822	465.6759601056189	3475.971373847532	699.6175999023787	-38.235913533654255	3545.8122206338935	917.3173215548873	216.13225496880153	3485.9141260800448	919.0296975574722	331.26871951900154	3384.8337745655217	694.3440985558814	373.5156086680269	3415.708428889796	613.3467729961419	420.06709602135595	3426.666694911096	613.0384700382527	450.51649044876694	3457.2941279359043	685.0564428128886
463	7.716666666666667	445.9860372309155	3658.2064879283453	646.1397281560867	832.4906462402241	3689.6689114183323	646.0844338868756	1217.7150237954988	3737.7600705579216	674.9824059860545	1295.4927893875401	3641.8032458540674	657.5231144425838	1287.3270912340877	3687.6114490584205	605.556934674665	1289.487539014381	3820.151252620975	747.3832981626343	455.7174179492908	3599.8156382066127	851.7593205531049	841.5169029117685	3598.291438484619	853.2418476932313	1241.885647532565	3692.569270174827	868.2838564684854	1308.4648545603118	3545.1365230806045	806.2852091281721	1288.5222810100183	3538.6544043240847	847.5211312843601	1263.9228839915152	3710.167249330789	858.2469857663548	-130.348646429984	3635.256341846053	772.3794317718076	-393.50222433048964	3589.6649113904737	742.7040697220964	-256.2538458014515	3457.854601758523	715.2144091181452	-44.906206777988025	3721.7858682244946	628.6033064684692	197.8765988173976	3666.4194172648704	539.8203750295015	343.6518050006272	3529.66718033382	628.0933249738313	407.1696487501906	3488.9453553095545	726.7716823210262	437.7320941300476	3485.4964468159596	726.4504546253347	465.9621679467435	3476.1161755354724	699.664026354511	-38.50572382137455	3541.517759889857	913.282940372291	216.210653179273	3485.91969053022	919.0054922314647	331.0084629716787	3383.435464162445	693.1615728532909	375.0893511125029	3419.6482899185803	617.4067285840554	420.81520983327414	3427.934155001935	614.279299082146	450.2177885165121	3457.41307094601	685.0633143976561
